<?xml version="1.0" standalone="no"?><!DOCTYPE svg PUBLIC "-//W3C//DTD SVG 1.1//EN" "http://www.w3.org/Graphics/SVG/1.1/DTD/svg11.dtd"><svg class="icon" width="200px" height="200.00px" viewBox="0 0 1024 1024" version="1.1" xmlns="http://www.w3.org/2000/svg"><path d="M921.6 403.421867a68.266667 68.266667 0 0 0 68.266667-68.266667v-57.378133a68.266667 68.266667 0 0 0-41.386667-62.754134L538.897067 39.662933a68.1984 68.1984 0 0 0-53.742934 0L75.537067 215.04A68.2496 68.2496 0 0 0 34.133333 277.794133v57.361067a68.266667 68.266667 0 0 0 68.266667 68.266667c16.093867 0 29.149867 13.056 29.149867 29.149866V790.016c0 16.093867-13.056 29.149867-29.149867 29.149867a68.266667 68.266667 0 0 0-68.266667 68.266666v34.133334a68.266667 68.266667 0 0 0 68.266667 68.266666h819.2a68.266667 68.266667 0 0 0 68.266667-68.266666v-34.133334a68.266667 68.266667 0 0 0-68.266667-68.266666 29.149867 29.149867 0 0 1-29.149867-29.149867V432.571733c0-16.093867 13.056-29.149867 29.149867-29.149866z m-160.7168 415.761066h-58.794667a29.149867 29.149867 0 0 1-29.149866-29.149866V580.2496a51.2 51.2 0 1 0-102.4 0v209.783467c0 16.093867-13.056 29.149867-29.149867 29.149866h-58.7776a29.149867 29.149867 0 0 1-29.149867-29.149866V580.2496a51.2 51.2 0 1 0-102.4 0v209.783467c0 16.093867-13.056 29.149867-29.149866 29.149866h-58.794667a29.149867 29.149867 0 0 1-29.149867-29.149866V432.571733c0-16.093867 13.056-29.149867 29.149867-29.149866h497.783467c16.093867 0 29.149867 13.056 29.149866 29.149866V790.016c0 16.110933-13.056 29.166933-29.166933 29.166933z" fill="#001C44" /></svg>