<?xml version="1.0" standalone="no"?><!DOCTYPE svg PUBLIC "-//W3C//DTD SVG 1.1//EN" "http://www.w3.org/Graphics/SVG/1.1/DTD/svg11.dtd"><svg class="icon" width="200px" height="200.00px" viewBox="0 0 1024 1024" version="1.1" xmlns="http://www.w3.org/2000/svg"><path d="M921.6 375.466667H102.4c-37.546667 0-68.266667 30.72-68.266667 68.266666v409.6c0 37.546667 30.72 68.266667 68.266667 68.266667h819.2c37.546667 0 68.266667-30.72 68.266667-68.266667V443.733333c0-37.546667-30.72-68.266667-68.266667-68.266666zM853.333333 238.933333H170.666667c-37.546667 0-68.266667 30.72-68.266667 68.266667h819.2c0-37.546667-30.72-68.266667-68.266667-68.266667zM785.066667 102.4H238.933333c-37.546667 0-68.266667 30.72-68.266666 68.266667h682.666666c0-37.546667-30.72-68.266667-68.266666-68.266667z" fill="#001C44" /></svg>