<?xml version="1.0" encoding="UTF-8" standalone="no"?>
<!DOCTYPE svg PUBLIC "-//W3C//DTD SVG 1.1//EN" "http://www.w3.org/Graphics/SVG/1.1/DTD/svg11.dtd">
<svg width="100%" height="100%" viewBox="0 0 200 200" version="1.1" xmlns="http://www.w3.org/2000/svg" xmlns:xlink="http://www.w3.org/1999/xlink" xml:space="preserve" xmlns:serif="http://www.serif.com/" style="fill-rule:evenodd;clip-rule:evenodd;stroke-linejoin:round;stroke-miterlimit:2;">
    <g transform="matrix(0.875038,0,0,0.875038,12.4962,12.4728)">
        <path d="M100,199.626C81.41,199.626 25.14,143.606 25.14,74.86C25.14,33.793 58.933,0 100,0C141.067,-0 174.86,33.793 174.86,74.86C174.86,142.109 117.467,199.626 100,199.626ZM100,12.477C65.778,12.477 37.617,40.637 37.617,74.86C37.617,137.243 89.52,187.149 100,187.149C110.48,185.901 162.383,137.243 162.383,74.86C162.383,40.637 134.222,12.477 100,12.477ZM100,112.289C99.917,112.29 99.834,112.29 99.751,112.29C80.792,112.29 65.191,96.689 65.191,77.73C65.191,58.771 80.792,43.17 99.751,43.17C118.711,43.17 134.312,58.771 134.312,77.73C134.312,77.813 134.311,77.896 134.311,77.979C134.176,96.75 118.771,112.154 100,112.289ZM100,55.895C99.917,55.894 99.834,55.894 99.75,55.894C87.636,55.894 77.667,65.863 77.667,77.977C77.667,90.092 87.636,100.061 99.75,100.061C111.865,100.061 121.833,90.093 121.834,77.979C121.835,65.958 112.02,56.031 100,55.895Z" style="fill-rule:nonzero;stroke:black;stroke-width:3.43px;"/>
    </g>
</svg>
