<?xml version="1.0" encoding="UTF-8" standalone="no"?>
<!DOCTYPE svg PUBLIC "-//W3C//DTD SVG 1.1//EN" "http://www.w3.org/Graphics/SVG/1.1/DTD/svg11.dtd">
<svg width="100%" height="100%" viewBox="0 0 200 200" version="1.1" xmlns="http://www.w3.org/2000/svg" xmlns:xlink="http://www.w3.org/1999/xlink" xml:space="preserve" xmlns:serif="http://www.serif.com/" style="fill-rule:evenodd;clip-rule:evenodd;stroke-linejoin:round;stroke-miterlimit:2;">
    <g transform="matrix(0.706547,0,0,0.707542,29.3453,29.2458)">
        <path d="M170.833,12.5L29.167,12.5C12.917,12.5 0,25.417 0,41.667L0,158.333C0,174.583 12.917,187.5 29.167,187.5L170.833,187.5C187.083,187.5 200,174.583 200,158.333L200,41.667C200,25.417 187.083,12.5 170.833,12.5ZM29.167,29.167L170.833,29.167C177.917,29.167 183.333,34.583 183.333,41.667L183.333,47.5L102.083,98.75L16.667,47.5L16.667,41.667C16.667,34.583 22.083,29.167 29.167,29.167ZM170.833,170.833L29.167,170.833C22.083,170.833 16.667,165.417 16.667,158.333L16.667,66.667L102.083,117.917L183.333,67.083L183.333,158.333C183.333,165.417 177.917,170.833 170.833,170.833Z" style="fill-rule:nonzero;"/>
    </g>
</svg>
