<?xml version="1.0" encoding="UTF-8" standalone="yes"?>
<svg xmlns="http://www.w3.org/2000/svg" xmlns:xlink="http://www.w3.org/1999/xlink" width="671.028pt" height="309.376pt" version="1.1" viewBox="-339.064 391.231 671.028 309.376">
  <!--
	Exported with Concepts: Smarter Sketching
	Version: 977 on iOS 14.7
	https://concepts.app/
	-->
  <title>Untitled</title>
  <desc>Drawing exported from Concepts: Smarter Sketching</desc>
  <defs></defs>
  <g id="Wire" opacity="1.000">
    <path id="STROKE_727b0dc6-ae33-4f52-b6eb-f006901436ff" opacity="1.000" fill="none" stroke="#000000" stroke-width="20.000" stroke-opacity="1.000" stroke-linecap="round" stroke-linejoin="round" d="M -170.045 401.849 Q -169.593 402.519 -170.545 409.227 Q -171.498 415.935 -171.955 420.218 Q -172.413 424.501 -172.598 426.934 Q -172.784 429.367 -172.924 430.849 Q -173.064 432.331 -173.411 435.350 Q -173.757 438.369 -173.834 440.097 Q -173.911 441.825 -174.346 446.859 Q -174.781 451.893 -175.288 454.914 Q -175.795 457.936 -176.212 460.230 Q -176.629 462.524 -176.888 464.598 Q -177.146 466.671 -177.227 467.844 Q -177.308 469.018 -177.506 470.149 Q -177.705 471.281 -178.725 476.184 Q -179.744 481.088 -180.307 484.454 Q -180.871 487.820 -181.731 492.258 Q -182.592 496.696 -183.640 501.430 Q -184.688 506.163 -185.528 509.355 Q -186.367 512.548 -186.798 514.152 Q -187.229 515.756 -187.495 516.650 Q -187.762 517.544 -188.682 520.883 Q -189.601 524.222 -190.347 526.816 Q -191.093 529.409 -191.484 530.866 Q -191.876 532.323 -192.857 535.336 Q -193.839 538.349 -197.494 549.082 Q -201.150 559.815 -204.206 567.869 Q -207.262 575.923 -209.056 579.944 Q -210.850 583.965 -211.517 585.761 Q -212.185 587.556 -215.404 594.192 Q -218.623 600.828 -220.760 604.803 Q -222.898 608.778 -224.334 611.299 Q -225.771 613.821 -226.545 615.222 Q -227.320 616.623 -229.196 619.614 Q -231.073 622.605 -232.811 625.104 Q -234.549 627.602 -235.488 628.973 Q -236.428 630.345 -237.671 632.074 Q -238.915 633.804 -240.375 635.918 Q -241.834 638.033 -246.141 643.560 Q -250.447 649.087 -252.774 651.939 Q -255.101 654.792 -257.291 657.158 Q -259.481 659.525 -263.161 663.347 Q -266.841 667.169 -269.199 669.592 Q -271.556 672.015 -274.132 673.950 Q -276.707 675.886 -278.220 676.795 Q -279.732 677.703 -281.380 678.740 Q -283.029 679.776 -285.102 681.446 Q -287.175 683.116 -289.705 684.325 Q -292.235 685.535 -294.245 686.087 Q -296.256 686.638 -299.262 687.166 Q -302.269 687.694 -304.786 687.863 Q -307.303 688.031 -309.399 687.637 Q -311.496 687.243 -313.899 685.775 Q -316.303 684.307 -317.701 683.268 Q -319.099 682.230 -320.311 680.488 Q -321.523 678.747 -322.316 677.374 Q -323.109 676.001 -324.697 670.905 Q -326.285 665.810 -327.214 661.161 Q -328.142 656.513 -328.344 653.084 Q -328.547 649.656 -328.309 646.391 Q -328.071 643.126 -326.589 638.482 Q -325.107 633.837 -323.750 630.889 Q -322.392 627.942 -321.563 626.294 Q -320.733 624.646 -317.908 621.448 Q -315.083 618.251 -313.224 616.550 Q -311.366 614.850 -309.146 613.311 Q -306.926 611.772 -305.340 611.066 Q -303.754 610.360 -299.139 608.390 Q -294.524 606.420 -290.794 605.099 Q -287.064 603.778 -285.464 603.396 Q -283.865 603.013 -280.699 602.214 Q -277.533 601.415 -274.091 600.688 Q -270.649 599.961 -268.863 599.771 Q -267.076 599.582 -263.546 599.333 Q -260.016 599.085 -258.032 598.594 Q -256.049 598.102 -250.033 597.715 Q -244.016 597.328 -238.047 596.739 Q -232.077 596.149 -228.226 595.463 Q -224.376 594.776 -220.948 594.559 Q -217.520 594.342 -214.818 594.254 Q -212.115 594.167 -209.066 593.652 Q -206.016 593.138 -204.090 592.836 Q -202.165 592.533 -199.400 592.212 Q -196.636 591.890 -189.749 591.104 Q -182.863 590.317 -179.167 589.987 Q -175.472 589.658 -170.941 588.607 Q -166.409 587.555 -162.924 586.779 Q -159.440 586.003 -157.506 585.616 Q -155.571 585.230 -154.321 584.957 Q -153.071 584.684 -148.187 582.797 Q -143.302 580.910 -140.525 579.697 Q -137.748 578.485 -135.423 577.177 Q -133.098 575.869 -130.240 573.768 Q -127.381 571.668 -123.660 568.443 Q -119.939 565.219 -118.189 563.457 Q -116.440 561.695 -115.406 560.605 Q -114.373 559.515 -112.209 557.149 Q -110.045 554.783 -106.831 550.677 Q -103.617 546.570 -100.924 542.964 Q -98.231 539.358 -96.627 537.260 Q -95.022 535.162 -91.937 530.194 Q -88.852 525.227 -87.320 522.718 Q -85.789 520.208 -84.742 518.108 Q -83.695 516.008 -82.791 514.222 Q -81.886 512.436 -81.200 510.775 Q -80.513 509.114 -79.159 505.938 Q -77.805 502.763 -76.645 500.371 Q -75.485 497.979 -73.851 494.601 Q -72.217 491.223 -69.818 484.259 Q -67.418 477.295 -65.369 470.005 Q -63.320 462.714 -62.436 458.256 Q -61.552 453.798 -61.207 451.704 Q -60.862 449.610 -60.172 444.588 Q -59.482 439.565 -59.204 435.594 Q -58.926 431.623 -58.702 427.560 Q -58.478 423.496 -58.501 420.868 Q -58.524 418.240 -58.814 416.246 Q -59.103 414.253 -60.252 412.700 Q -61.401 411.147 -62.278 410.386 Q -63.155 409.626 -63.797 409.053 Q -64.439 408.480 -64.628 408.387 Q -64.817 408.293 -65.030 408.078 Q -65.243 407.864 -66.190 407.750 Q -67.137 407.637 -67.686 407.651 Q -68.234 407.665 -70.003 409.280 Q -71.772 410.895 -73.358 413.415 Q -74.944 415.935 -76.206 418.119 Q -77.468 420.304 -81.670 427.561 Q -85.873 434.817 -88.445 439.840 Q -91.018 444.863 -92.145 447.150 Q -93.273 449.438 -94.997 454.031 Q -96.720 458.624 -98.147 461.714 Q -99.574 464.804 -100.974 468.130 Q -102.375 471.457 -104.143 476.162 Q -105.911 480.868 -106.715 483.192 Q -107.518 485.516 -109.529 490.531 Q -111.540 495.546 -113.404 500.985 Q -115.268 506.424 -117.058 512.033 Q -118.847 517.641 -120.212 521.533 Q -121.576 525.425 -122.336 527.712 Q -123.095 529.999 -124.475 535.473 Q -125.855 540.946 -126.734 543.950 Q -127.613 546.954 -129.176 551.885 Q -130.739 556.815 -131.480 560.262 Q -132.221 563.708 -133.203 567.301 Q -134.185 570.894 -135.952 580.052 Q -137.718 589.211 -138.686 596.411 Q -139.654 603.611 -140.049 607.016 Q -140.444 610.420 -140.450 612.299 Q -140.456 614.178 -141.061 618.759 Q -141.666 623.341 -141.780 629.852 Q -141.894 636.363 -141.864 639.898 Q -141.834 643.433 -141.841 645.052 Q -141.849 646.670 -141.806 649.733 Q -141.763 652.795 -141.857 654.907 Q -141.951 657.020 -141.274 661.112 Q -140.598 665.203 -140.104 667.336 Q -139.610 669.469 -138.261 672.429 Q -136.912 675.389 -135.860 677.238 Q -134.808 679.086 -133.332 680.349 Q -131.855 681.612 -130.816 682.399 Q -129.778 683.187 -129.102 683.877 Q -128.427 684.567 -126.301 685.429 Q -124.175 686.291 -123.207 686.571 Q -122.240 686.851 -119.848 687.009 Q -117.456 687.166 -114.461 687.255 Q -111.467 687.344 -108.594 686.759 Q -105.722 686.174 -104.057 685.671 Q -102.392 685.168 -101.138 684.951 Q -99.885 684.734 -96.981 683.634 Q -94.077 682.535 -91.357 681.108 Q -88.638 679.680 -87.159 678.876 Q -85.679 678.073 -82.149 676.003 Q -78.618 673.933 -76.086 672.390 Q -73.554 670.848 -72.257 669.943 Q -70.961 669.039 -70.068 668.371 Q -69.176 667.704 -67.954 666.765 Q -66.732 665.825 -65.220 664.653 Q -63.707 663.480 -60.066 659.851 Q -56.425 656.222 -52.685 652.994 Q -48.945 649.766 -43.900 644.033 Q -38.855 638.301 -36.106 635.065 Q -33.357 631.829 -32.073 630.219 Q -30.790 628.608 -28.821 625.656 Q -26.852 622.704 -25.214 619.960 Q -23.576 617.217 -22.515 614.640 Q -21.455 612.062 -20.906 610.348 Q -20.358 608.633 -20.177 608.321 Q -19.997 608.008 -19.199 604.692 Q -18.402 601.376 -18.064 598.904 Q -17.727 596.432 -18.097 594.013 Q -18.467 591.595 -18.727 589.492 Q -18.987 587.390 -19.219 586.511 Q -19.452 585.633 -20.385 584.387 Q -21.318 583.140 -21.707 582.004 Q -22.096 580.867 -23.829 581.286 Q -25.562 581.705 -26.655 582.032 Q -27.749 582.358 -28.177 582.354 Q -28.605 582.350 -31.006 583.742 Q -33.407 585.134 -35.185 586.216 Q -36.964 587.299 -37.994 588.199 Q -39.024 589.100 -39.907 590.031 Q -40.789 590.963 -43.782 594.723 Q -46.775 598.483 -48.509 600.491 Q -50.243 602.498 -51.428 604.264 Q -52.613 606.031 -53.309 607.613 Q -54.005 609.195 -54.862 613.020 Q -55.718 616.845 -57.106 620.443 Q -58.493 624.041 -59.258 627.260 Q -60.022 630.480 -60.095 632.441 Q -60.169 634.403 -60.649 638.876 Q -61.128 643.348 -61.521 645.735 Q -61.914 648.122 -61.880 651.581 Q -61.846 655.040 -61.882 657.342 Q -61.919 659.645 -61.807 660.847 Q -61.696 662.050 -61.202 663.319 Q -60.708 664.587 -60.192 666.356 Q -59.676 668.124 -58.980 670.147 Q -58.284 672.170 -57.315 673.591 Q -56.347 675.012 -55.282 676.959 Q -54.218 678.906 -52.507 680.525 Q -50.797 682.145 -49.213 683.249 Q -47.629 684.352 -45.542 685.251 Q -43.455 686.151 -39.917 686.170 Q -36.379 686.189 -34.008 686.200 Q -31.636 686.211 -29.641 686.259 Q -27.645 686.308 -26.618 686.238 Q -25.591 686.168 -24.791 686.039 Q -23.991 685.910 -21.158 685.290 Q -18.324 684.670 -14.543 682.914 Q -10.762 681.158 -7.164 678.919 Q -3.565 676.681 -2.111 675.696 Q -0.657 674.712 0.353 673.910 Q 1.363 673.108 1.793 672.742 Q 2.224 672.377 2.990 671.692 Q 3.757 671.007 4.698 670.175 Q 5.638 669.343 6.249 668.760 Q 6.860 668.178 7.294 667.826 Q 7.728 667.473 10.000 665.640 Q 12.273 663.808 15.994 659.192 Q 19.715 654.576 21.701 652.141 Q 23.688 649.707 24.781 648.343 Q 25.874 646.978 27.282 645.019 Q 28.691 643.060 29.625 641.746 Q 30.558 640.432 31.796 638.701 Q 33.034 636.970 34.729 634.328 Q 36.425 631.686 39.037 628.138 Q 41.650 624.590 45.029 619.590 Q 48.407 614.590 50.483 611.237 Q 52.559 607.883 54.031 605.341 Q 55.503 602.800 56.813 600.777 Q 58.123 598.753 61.538 591.684 Q 64.952 584.614 67.680 578.051 Q 70.408 571.489 73.234 564.994 Q 76.059 558.499 78.279 552.016 Q 80.498 545.534 81.520 541.735 Q 82.543 537.935 83.044 536.175 Q 83.546 534.415 85.659 526.733 Q 87.773 519.051 88.888 514.933 Q 90.003 510.816 90.660 508.880 Q 91.318 506.945 91.721 505.270 Q 92.125 503.595 92.323 502.551 Q 92.521 501.506 93.056 498.862 Q 93.591 496.218 94.621 490.133 Q 95.650 484.047 96.164 480.814 Q 96.677 477.581 96.856 476.147 Q 97.035 474.714 97.315 472.185 Q 97.595 469.656 98.092 465.208 Q 98.589 460.761 98.846 456.947 Q 99.104 453.132 99.220 450.950 Q 99.336 448.768 99.560 446.372 Q 99.783 443.975 99.802 441.248 Q 99.821 438.520 99.830 435.354 Q 99.839 432.189 99.851 430.285 Q 99.862 428.382 99.726 427.513 Q 99.589 426.645 99.158 425.509 Q 98.727 424.374 98.502 423.824 Q 98.276 423.275 97.882 423.005 Q 97.488 422.735 97.391 422.766 Q 97.294 422.798 97.128 422.779 Q 96.962 422.761 96.795 422.769 Q 96.627 422.778 96.615 422.779 Q 96.602 422.780 96.678 422.769 Q 96.753 422.758 96.338 422.796 Q 95.924 422.834 95.721 422.744 Q 95.517 422.654 94.526 423.850 Q 93.534 425.046 92.883 426.044 Q 92.233 427.042 91.641 427.832 Q 91.050 428.623 89.562 431.267 Q 88.075 433.911 85.808 440.291 Q 83.541 446.670 81.657 452.244 Q 79.772 457.817 78.866 460.726 Q 77.961 463.635 75.865 471.172 Q 73.770 478.710 72.176 484.108 Q 70.582 489.506 69.871 491.891 Q 69.161 494.276 68.070 498.687 Q 66.979 503.097 65.644 509.931 Q 64.308 516.764 63.606 520.497 Q 62.903 524.231 62.123 527.643 Q 61.344 531.056 60.061 537.654 Q 58.778 544.253 58.121 547.578 Q 57.463 550.903 57.109 552.424 Q 56.754 553.944 56.036 559.495 Q 55.318 565.046 54.287 571.169 Q 53.255 577.292 52.497 580.519 Q 51.738 583.747 51.230 587.806 Q 50.723 591.866 50.537 594.450 Q 50.350 597.033 49.819 602.908 Q 49.288 608.783 49.135 615.217 Q 48.982 621.651 48.767 625.168 Q 48.552 628.685 48.446 630.963 Q 48.339 633.241 48.410 635.819 Q 48.482 638.397 48.539 640.505 Q 48.596 642.612 48.940 647.771 Q 49.285 652.930 49.432 655.695 Q 49.579 658.460 49.988 661.067 Q 50.396 663.674 51.656 667.262 Q 52.916 670.850 53.570 672.672 Q 54.223 674.493 54.579 675.446 Q 54.936 676.400 56.007 678.396 Q 57.077 680.391 58.708 682.385 Q 60.339 684.378 62.160 685.236 Q 63.981 686.094 66.608 686.571 Q 69.236 687.048 70.394 687.186 Q 71.553 687.324 72.810 687.312 Q 74.068 687.300 77.012 685.657 Q 79.957 684.014 83.681 681.645 Q 87.405 679.275 91.696 675.560 Q 95.987 671.845 101.242 666.439 Q 106.498 661.032 109.242 657.904 Q 111.987 654.776 113.603 652.870 Q 115.218 650.964 116.973 648.644 Q 118.728 646.323 121.717 642.394 Q 124.705 638.465 127.142 635.071 Q 129.579 631.677 131.474 628.706 Q 133.369 625.736 134.949 622.972 Q 136.530 620.208 139.549 614.822 Q 142.569 609.435 144.637 605.259 Q 146.705 601.082 147.556 599.123 Q 148.406 597.163 148.994 595.808 Q 149.581 594.452 152.173 588.818 Q 154.764 583.184 156.701 578.708 Q 158.639 574.231 160.053 570.167 Q 161.467 566.102 163.707 560.297 Q 165.947 554.492 168.606 545.087 Q 171.265 535.682 172.528 530.861 Q 173.791 526.039 174.640 522.715 Q 175.489 519.390 175.926 517.525 Q 176.364 515.659 176.737 514.280 Q 177.110 512.901 178.315 507.588 Q 179.519 502.275 180.219 499.433 Q 180.919 496.592 181.181 492.722 Q 181.443 488.852 181.805 485.472 Q 182.167 482.092 182.664 479.708 Q 183.160 477.323 183.794 470.967 Q 184.429 464.610 184.909 460.041 Q 185.389 455.471 185.729 452.380 Q 186.068 449.289 186.292 444.971 Q 186.516 440.652 186.471 438.499 Q 186.426 436.346 186.430 434.510 Q 186.434 432.674 186.390 431.194 Q 186.345 429.713 186.388 429.095 Q 186.431 428.476 186.131 427.873 Q 185.831 427.270 185.568 426.808 Q 185.304 426.346 185.125 426.030 Q 184.946 425.713 184.744 425.269 Q 184.542 424.824 184.382 424.565 Q 184.223 424.305 184.249 424.406 Q 184.275 424.508 184.231 424.020 Q 184.187 423.532 183.059 423.393 Q 181.930 423.254 181.247 423.325 Q 180.563 423.397 180.261 423.520 Q 179.959 423.644 179.627 423.826 Q 179.294 424.008 178.417 424.684 Q 177.540 425.360 175.283 428.531 Q 173.026 431.702 171.291 435.023 Q 169.555 438.343 168.811 440.423 Q 168.066 442.502 167.184 445.653 Q 166.301 448.804 165.035 452.544 Q 163.769 456.285 163.035 458.286 Q 162.302 460.286 161.103 463.010 Q 159.904 465.733 158.260 471.653 Q 156.616 477.573 155.256 482.431 Q 153.896 487.289 153.276 489.526 Q 152.656 491.763 151.120 498.513 Q 149.584 505.263 148.650 508.854 Q 147.717 512.445 146.977 516.537 Q 146.238 520.629 145.510 524.564 Q 144.782 528.499 143.153 538.359 Q 141.524 548.219 140.636 553.253 Q 139.747 558.287 138.958 565.189 Q 138.170 572.090 137.585 575.985 Q 137.000 579.879 136.339 586.947 Q 135.678 594.015 135.249 598.263 Q 134.819 602.512 134.556 604.870 Q 134.292 607.228 134.137 609.558 Q 133.982 611.888 133.890 618.529 Q 133.797 625.169 133.724 630.050 Q 133.650 634.930 134.238 641.366 Q 134.827 647.802 135.180 651.309 Q 135.532 654.816 135.776 656.629 Q 136.019 658.441 136.705 661.091 Q 137.391 663.741 138.504 666.823 Q 139.617 669.904 140.179 671.405 Q 140.741 672.906 142.211 674.909 Q 143.681 676.912 144.527 678.195 Q 145.372 679.479 145.807 680.610 Q 146.243 681.742 146.557 682.229 Q 146.871 682.715 147.023 682.905 Q 147.174 683.094 147.359 683.293 Q 147.543 683.491 147.696 683.639 Q 147.850 683.786 147.982 683.900 Q 148.115 684.014 148.355 684.201 Q 148.595 684.387 148.576 684.299 Q 148.557 684.212 148.545 684.402 Q 148.533 684.592 150.068 685.154 Q 151.603 685.715 152.588 685.637 Q 153.573 685.559 153.957 685.627 Q 154.342 685.694 155.937 685.083 Q 157.532 684.471 158.456 684.358 Q 159.381 684.244 161.061 682.734 Q 162.741 681.224 163.512 680.267 Q 164.282 679.310 164.795 678.811 Q 165.309 678.312 167.184 675.634 Q 169.058 672.955 171.500 669.160 Q 173.941 665.365 176.432 661.536 Q 178.922 657.706 181.357 654.201 Q 183.792 650.696 185.665 647.017 Q 187.539 643.337 189.076 640.350 Q 190.614 637.362 193.227 633.541 Q 195.840 629.720 197.184 627.480 Q 198.528 625.240 200.303 622.100 Q 202.079 618.960 203.163 617.429 Q 204.246 615.897 204.780 615.173 Q 205.315 614.449 206.085 613.730 Q 206.855 613.010 210.052 609.224 Q 213.248 605.439 214.734 603.013 Q 216.220 600.587 219.672 597.985 Q 223.123 595.384 225.820 593.392 Q 228.517 591.400 230.662 589.788 Q 232.807 588.175 234.619 586.913 Q 236.431 585.650 239.286 584.705 Q 242.142 583.760 245.733 582.476 Q 249.323 581.192 251.681 580.485 Q 254.038 579.778 256.046 579.737 Q 258.054 579.695 259.858 580.140 Q 261.661 580.584 263.217 581.091 Q 264.773 581.598 265.884 581.774 Q 266.996 581.949 268.964 583.186 Q 270.933 584.423 272.253 585.771 Q 273.573 587.120 274.451 588.117 Q 275.329 589.113 275.721 589.786 Q 276.114 590.460 276.588 591.826 Q 277.062 593.192 278.208 595.538 Q 279.353 597.884 279.850 601.381 Q 280.346 604.878 280.416 608.213 Q 280.486 611.547 280.781 614.953 Q 281.075 618.358 280.933 622.631 Q 280.791 626.904 280.438 630.332 Q 280.084 633.759 279.491 637.790 Q 278.898 641.820 278.483 644.905 Q 278.068 647.989 277.679 651.087 Q 277.290 654.185 276.812 656.507 Q 276.335 658.829 275.685 660.415 Q 275.035 662.000 274.246 664.522 Q 273.457 667.044 273.203 668.206 Q 272.949 669.369 272.483 670.644 Q 272.016 671.919 270.719 674.166 Q 269.423 676.414 268.635 677.621 Q 267.848 678.829 266.065 680.809 Q 264.281 682.789 261.934 684.589 Q 259.587 686.389 257.496 687.542 Q 255.405 688.696 253.106 689.069 Q 250.808 689.443 249.385 689.588 Q 247.963 689.734 246.778 689.909 Q 245.592 690.085 243.998 689.863 Q 242.404 689.641 240.483 689.334 Q 238.561 689.027 236.781 688.689 Q 235.000 688.350 234.044 687.959 Q 233.089 687.567 231.966 686.864 Q 230.844 686.161 230.205 685.338 Q 229.566 684.514 229.081 683.877 Q 228.595 683.240 227.853 682.053 Q 227.112 680.866 226.175 678.424 Q 225.239 675.983 224.494 672.315 Q 223.749 668.647 223.586 665.404 Q 223.424 662.160 222.927 658.686 Q 222.430 655.211 222.302 649.885 Q 222.174 644.558 221.980 642.222 Q 221.787 639.886 222.145 637.625 Q 222.503 635.365 223.380 632.380 Q 224.258 629.395 225.059 627.080 Q 225.859 624.766 226.892 622.327 Q 227.925 619.888 228.423 618.049 Q 228.920 616.210 229.752 613.552 Q 230.585 610.894 231.181 608.911 Q 231.778 606.928 233.661 603.173 Q 235.544 599.419 238.123 595.878 Q 240.702 592.337 242.455 590.450 Q 244.207 588.562 245.234 587.613 Q 246.262 586.663 247.121 585.776 Q 247.979 584.888 249.495 583.873 Q 251.010 582.858 251.913 582.520 Q 252.816 582.182 253.403 582.076 Q 253.990 581.971 254.269 581.892 Q 254.549 581.813 256.971 581.420 Q 259.394 581.027 261.098 581.011 Q 262.802 580.996 264.788 581.840 Q 266.774 582.684 268.011 583.483 Q 269.248 584.282 269.895 584.922 Q 270.542 585.562 273.714 588.222 Q 276.887 590.882 279.634 592.659 Q 282.381 594.436 283.550 595.375 Q 284.720 596.315 287.697 597.771 Q 290.674 599.228 292.716 600.196 Q 294.759 601.164 297.975 601.242 Q 301.191 601.320 303.037 601.370 Q 304.883 601.421 308.488 600.245 Q 312.093 599.069 314.670 597.717 Q 317.246 596.364 318.605 595.498 Q 319.964 594.631 320.714 593.530 Q 321.465 592.428 321.339 591.611 Q 321.212 590.794 321.103 590.595 "></path>
  </g>
</svg>