<?xml version="1.0" encoding="UTF-8"?>
<svg xmlns="http://www.w3.org/2000/svg" xmlns:xlink="http://www.w3.org/1999/xlink" width="2470.03pt" height="936.38pt" viewBox="0 0 2470.03 936.38" version="1.1">
<defs>
<clipPath id="clip1">
  <path d="M 0 457 L 2470.03125 457 L 2470.03125 611 L 0 611 Z M 0 457 "/>
</clipPath>
<clipPath id="clip2">
  <path d="M 917 0 L 1993 0 L 1993 936.378906 L 917 936.378906 Z M 917 0 "/>
</clipPath>
</defs>
<g id="surface1">
<g clip-path="url(#clip1)" clip-rule="nonzero">
<path style=" stroke:none;fill-rule:nonzero;fill:rgb(58.399963%,59.999084%,63.09967%);fill-opacity:1;" d="M 1499.109375 457.144531 C 1902.660156 476.203125 2249.75 537.007813 2470.03125 610.371094 C 2222.351563 556.121094 1865.910156 508.019531 1462.871094 494.15625 C 1475.839844 483.105469 1487.988281 470.761719 1499.109375 457.144531 M 0 610.371094 C 215.480469 538.625 552.234375 478.867188 944.496094 458.449219 C 955.4375 471.707031 967.464844 483.902344 980.382813 494.882813 C 587.335938 509.648438 243.476563 557.078125 0 610.371094 "/>
</g>
<path style=" stroke:none;fill-rule:nonzero;fill:rgb(58.399963%,59.999084%,63.09967%);fill-opacity:1;" d="M 884.503906 286.789063 C 885.132813 212.300781 842.566406 135.945313 748.050781 135.316406 C 661.050781 135.316406 609.730469 212.300781 609.730469 286.789063 C 609.730469 353.113281 647.914063 436.988281 746.796875 436.988281 C 830.039063 437.617188 884.503906 360.632813 884.503906 286.789063 M 827.527344 282.394531 C 830.039063 351.875 805.636719 410.699219 751.171875 412.582031 C 699.222656 415.097656 668.589844 357.511719 666.707031 289.910156 C 664.191406 223.570313 687.339844 160.351563 742.433594 157.855469 C 798.117188 155.96875 824.4375 219.191406 827.527344 282.394531 "/>
<path style=" stroke:none;fill-rule:nonzero;fill:rgb(86.299133%,23.899841%,33.299255%);fill-opacity:1;" d="M 1713.101563 416.980469 C 1693.691406 413.839844 1688.070313 400.078125 1688.070313 381.289063 C 1688.070313 370.648438 1688.070313 135.316406 1688.070313 135.316406 L 1612.960938 150.339844 C 1622.980469 153.476563 1634.859375 155.96875 1634.859375 175.386719 L 1634.859375 366.59375 C 1616.710938 384.121094 1599.210938 398.515625 1568.53125 398.515625 C 1532.851563 398.515625 1504.050781 370.984375 1504.050781 317.765625 C 1504.050781 281.480469 1504.050781 135.316406 1504.050781 135.316406 L 1428.328125 150.339844 C 1437.710938 153.476563 1449.578125 155.96875 1449.578125 175.386719 C 1449.578125 175.386719 1449.578125 295.546875 1449.578125 319.324219 C 1449.578125 412.582031 1507.808594 436.988281 1544.75 436.988281 C 1589.191406 436.988281 1617.328125 413.839844 1636.121094 393.1875 C 1636.121094 421.34375 1643.628906 428.230469 1658.648438 436.988281 L 1713.101563 416.980469 "/>
<path style=" stroke:none;fill-rule:nonzero;fill:rgb(86.299133%,23.899841%,33.299255%);fill-opacity:1;" d="M 1978.230469 264.859375 C 1978.230469 172.25 1913.75 135.316406 1860.578125 135.316406 C 1764.789063 135.316406 1716.609375 219.191406 1716.609375 287.417969 C 1716.609375 361.890625 1770.441406 436.988281 1858.691406 436.988281 C 1925.648438 436.988281 1973.851563 386.921875 1975.730469 335.601563 C 1963.851563 365.03125 1919.378906 400.703125 1875.601563 400.703125 C 1809.261719 400.703125 1775.449219 345.613281 1775.449219 282.394531 C 1775.449219 275.519531 1775.449219 269.886719 1775.449219 264.859375 L 1978.230469 264.859375 M 1920.648438 241.710938 L 1777.941406 241.710938 C 1782.96875 198.535156 1807.378906 157.855469 1853.039063 157.855469 C 1887.5 157.855469 1920.648438 181.003906 1920.648438 241.710938 "/>
<path style=" stroke:none;fill-rule:nonzero;fill:rgb(86.299133%,23.899841%,33.299255%);fill-opacity:1;" d="M 2184.128906 349.992188 C 2184.128906 298.667969 2140.921875 274.265625 2100.238281 251.726563 C 2067.699219 232.328125 2047.03125 221.078125 2047.03125 194.769531 C 2047.03125 178.496094 2062.050781 157.230469 2093.96875 157.230469 C 2132.171875 157.230469 2152.808594 196.023438 2162.808594 228.578125 L 2162.808594 153.476563 C 2134.039063 138.441406 2110.230469 135.316406 2093.96875 135.316406 C 2024.511719 135.316406 2001.359375 181.003906 2001.359375 211.6875 C 2001.359375 247.347656 2016.378906 268 2065.820313 296.175781 C 2108.988281 322.464844 2132.171875 331.222656 2132.171875 361.890625 C 2132.171875 376.90625 2120.261719 411.953125 2075.199219 411.953125 C 2033.871094 411.953125 2005.738281 370.648438 1995.699219 326.839844 L 1995.699219 407.59375 C 2016.378906 420.710938 2043.898438 436.988281 2078.96875 436.988281 C 2124.640625 436.988281 2184.128906 407.59375 2184.128906 349.992188 "/>
<path style=" stroke:none;fill-rule:nonzero;fill:rgb(86.299133%,23.899841%,33.299255%);fill-opacity:1;" d="M 2375.550781 394.425781 C 2366.789063 401.941406 2360.519531 410.699219 2335.488281 410.699219 C 2316.078125 410.699219 2278.53125 404.4375 2278.53125 345.613281 L 2278.53125 169.105469 L 2366.171875 169.105469 L 2366.171875 142.835938 L 2279.78125 142.835938 L 2279.78125 85.25 L 2198.410156 169.105469 L 2225.320313 169.105469 L 2225.320313 346.242188 C 2225.320313 406.339844 2262.28125 436.988281 2312.351563 436.988281 C 2348.621094 436.988281 2374.921875 410.699219 2375.550781 394.425781 "/>
<path style=" stroke:none;fill-rule:nonzero;fill:rgb(58.399963%,59.999084%,63.09967%);fill-opacity:1;" d="M 418.617188 122.164063 C 418.617188 73.355469 387.933594 5.773438 262.765625 5.773438 L 143.234375 5.773438 C 152.621094 10.761719 160.75 19.519531 160.75 33.929688 L 160.75 403.199219 C 160.75 416.980469 152.621094 425.738281 143.234375 431.355469 L 236.480469 431.355469 C 225.835938 425.738281 218.925781 416.980469 218.925781 403.199219 L 218.925781 236.703125 C 267.160156 256.121094 324.085938 241.710938 343.519531 232.953125 C 362.898438 224.199219 418.617188 190.390625 418.617188 122.164063 M 356.636719 123.421875 C 356.636719 209.179688 283.421875 221.078125 249.613281 221.078125 C 236.480469 221.078125 224.582031 219.191406 218.925781 216.679688 L 218.925781 31.417969 C 218.925781 31.417969 232.097656 30.804688 260.882813 30.804688 C 324.085938 30.804688 356.636719 66.480469 356.636719 123.421875 "/>
<path style=" stroke:none;fill-rule:nonzero;fill:rgb(58.399963%,59.999084%,63.09967%);fill-opacity:1;" d="M 598.640625 199.144531 L 598.640625 140.324219 C 591.15625 137.203125 589.902344 135.316406 574.867188 135.316406 C 552.96875 135.316406 520.398438 167.867188 507.265625 190.390625 L 507.265625 135.316406 L 430.277344 150.339844 C 440.941406 153.476563 452.824219 155.96875 452.824219 175.386719 L 452.824219 407.59375 C 452.824219 421.34375 446.558594 425.738281 436.5625 431.355469 L 523.542969 431.355469 C 514.175781 425.738281 507.265625 421.34375 507.265625 407.59375 L 507.265625 213.539063 C 519.183594 198.535156 537.953125 179.765625 561.730469 179.765625 C 578.007813 179.765625 589.273438 187.269531 598.640625 199.144531 "/>
<g clip-path="url(#clip2)" clip-rule="nonzero">
<path style=" stroke:none;fill-rule:nonzero;fill:rgb(86.299133%,23.899841%,33.299255%);fill-opacity:1;" d="M 1328.238281 264.339844 C 1329.53125 121.914063 1259.25 31.128906 1161.609375 31.128906 C 1065.261719 31.128906 993.03125 111.578125 993.03125 246.628906 L 993.03125 247.992188 C 993.246094 286.289063 998.988281 324.347656 1010.898438 359 C 1044.378906 456.476563 1126.371094 527.414063 1269.601563 488.746094 C 1233.308594 507.492188 1193.898438 516.472656 1156.980469 515.261719 C 1028.128906 512.285156 914.558594 402.335938 917.878906 250.308594 C 921.203125 130.773438 1012.859375 -5.011719 1170.238281 0.140625 C 1279.828125 2.367188 1408 93.882813 1404.710938 262.117188 C 1403.320313 332.460938 1379.171875 388.859375 1343.441406 430.441406 C 1388.539063 444.953125 1423.980469 465.773438 1431.328125 495.597656 C 1453.53125 585.785156 1318.261719 621.085938 1351.398438 746.628906 C 1399.308594 928.386719 1992.46875 936.378906 1992.46875 936.378906 C 1283.46875 936.378906 1027.699219 861.1875 1047.988281 702.683594 C 1065.78125 563.578125 1265.980469 572.367188 1292.929688 500.441406 C 1319.898438 428.574219 1103.441406 397.027344 1103.441406 397.027344 C 1103.441406 397.027344 1198.609375 398.332031 1286.609375 415.976563 C 1312.890625 378.722656 1328.238281 326.949219 1328.238281 264.339844 "/>
</g>
<path style=" stroke:none;fill-rule:nonzero;fill:rgb(86.299133%,23.899841%,33.299255%);fill-opacity:1;" d="M 2424.238281 439.179688 C 2442.949219 439.179688 2458.921875 424.660156 2458.921875 404.792969 C 2458.921875 385.109375 2442.949219 370.59375 2424.238281 370.59375 C 2405.410156 370.59375 2389.429688 385.109375 2389.429688 404.792969 C 2389.429688 424.660156 2405.410156 439.179688 2424.238281 439.179688 M 2396.289063 404.792969 C 2396.289063 388.558594 2408.539063 376.300781 2424.238281 376.300781 C 2439.769531 376.300781 2452.03125 388.558594 2452.03125 404.792969 C 2452.03125 421.304688 2439.769531 433.453125 2424.238281 433.453125 C 2408.539063 433.453125 2396.289063 421.304688 2396.289063 404.792969 Z M 2416.96875 407.507813 L 2423.890625 407.507813 L 2434.328125 424.660156 L 2441.019531 424.660156 L 2429.808594 407.238281 C 2435.589844 406.519531 2440.039063 403.429688 2440.039063 396.363281 C 2440.039063 388.558594 2435.398438 385.109375 2426.078125 385.109375 L 2411 385.109375 L 2411 424.660156 L 2416.96875 424.660156 Z M 2416.96875 402.425781 L 2416.96875 390.1875 L 2425.140625 390.1875 C 2429.300781 390.1875 2433.800781 391.085938 2433.800781 395.984375 C 2433.800781 402.070313 2429.230469 402.425781 2424.160156 402.425781 L 2416.96875 402.425781 "/>
</g>
</svg>
