<?xml version="1.0" encoding="UTF-8" standalone="no"?>
<!DOCTYPE svg PUBLIC "-//W3C//DTD SVG 1.1//EN" "http://www.w3.org/Graphics/SVG/1.1/DTD/svg11.dtd">
<svg width="100%" height="100%" viewBox="0 0 680 144" version="1.1" xmlns="http://www.w3.org/2000/svg" xmlns:xlink="http://www.w3.org/1999/xlink" xml:space="preserve" xmlns:serif="http://www.serif.com/" style="fill-rule:evenodd;clip-rule:evenodd;stroke-linejoin:round;stroke-miterlimit:1.41421;">
    <g transform="matrix(0.1,0,0,-0.1,-110,253)">
        <path d="M2217,2468C2204,2439 2111,2223 2009,1988C1908,1753 1823,1560 1820,1560C1809,1560 1507,2342 1503,2383C1498,2427 1520,2490 1540,2490C1546,2490 1550,2495 1550,2500C1550,2506 1471,2510 1334,2510L1118,2510L1162,2461C1208,2411 1243,2328 1621,1391C1684,1237 1740,1110 1745,1110C1751,1110 1847,1328 1960,1594C2073,1860 2168,2076 2171,2074C2174,2072 2266,1855 2376,1591C2485,1326 2580,1110 2585,1110C2591,1110 2703,1379 2835,1707C2967,2036 3087,2330 3102,2362C3117,2393 3148,2439 3171,2465L3213,2510L3060,2510L2908,2510L2934,2480C2969,2438 2976,2390 2957,2321C2948,2290 2876,2104 2797,1907L2653,1548L2573,1742C2530,1848 2440,2067 2374,2227C2309,2388 2252,2520 2247,2520C2243,2520 2229,2496 2217,2468Z" style="fill-rule:nonzero;"/>
        <path d="M3370,2272C3370,2267 3379,2255 3391,2244C3445,2195 3445,2197 3448,1745C3452,1281 3448,1240 3399,1191C3383,1175 3370,1159 3370,1156C3370,1153 3459,1150 3567,1150L3764,1150L3733,1183C3715,1200 3696,1228 3691,1243C3684,1261 3680,1425 3680,1713C3680,2126 3682,2158 3699,2197C3710,2220 3728,2245 3739,2252C3751,2259 3760,2268 3760,2272C3760,2277 3672,2280 3565,2280C3458,2280 3370,2276 3370,2272Z" style="fill-rule:nonzero;"/>
        <path d="M4150,2272C4150,2268 4159,2259 4171,2252C4182,2245 4200,2220 4211,2197C4228,2158 4230,2126 4230,1720C4230,1464 4226,1271 4220,1251C4215,1232 4196,1201 4178,1183L4146,1150L5178,1150L5205,1266C5220,1329 5229,1384 5225,1388C5222,1392 5204,1378 5187,1359C5101,1261 5054,1250 4723,1250L4460,1250L4460,1698C4460,2111 4462,2148 4479,2186C4489,2208 4509,2236 4524,2247C4538,2259 4550,2271 4550,2274C4550,2277 4460,2280 4350,2280C4240,2280 4150,2277 4150,2272Z" style="fill-rule:nonzero;"/>
        <path d="M5397,2274C5394,2270 5402,2258 5417,2247C5469,2206 5470,2196 5470,1716C5470,1427 5466,1261 5459,1243C5454,1228 5435,1200 5417,1183L5386,1150L5927,1150C6434,1150 6469,1151 6474,1168C6485,1205 6511,1373 6506,1377C6503,1380 6478,1362 6449,1336C6362,1258 6321,1250 5984,1250L5700,1250L5700,1702L5918,1698C6148,1694 6183,1687 6224,1641C6235,1630 6247,1620 6252,1620C6256,1620 6260,1676 6260,1745C6260,1814 6257,1870 6254,1870C6251,1870 6234,1859 6217,1846C6165,1807 6118,1800 5903,1800L5700,1800L5700,2180L5933,2180C6250,2180 6323,2166 6394,2091C6445,2037 6447,2044 6423,2233L6417,2280L5910,2280C5632,2280 5400,2277 5397,2274Z" style="fill-rule:nonzero;"/>
        <path d="M6630,2271C6630,2266 6639,2259 6650,2255C6683,2244 6749,2161 6948,1877L7140,1602L7140,1435C7140,1255 7132,1219 7084,1181C7071,1171 7060,1159 7060,1156C7060,1153 7151,1150 7262,1150L7464,1150L7433,1183C7379,1239 7376,1253 7372,1435L7368,1605L7554,1870C7749,2147 7826,2244 7860,2255C7913,2272 7868,2280 7725,2280C7640,2280 7570,2277 7570,2274C7570,2271 7579,2257 7590,2243C7613,2213 7616,2173 7596,2127C7589,2109 7524,2010 7452,1907L7321,1719L7183,1921C7107,2032 7040,2135 7033,2149C7015,2188 7018,2225 7040,2245C7051,2255 7060,2267 7060,2272C7060,2276 6963,2280 6845,2280C6719,2280 6630,2276 6630,2271Z" style="fill-rule:nonzero;"/>
    </g>
</svg>
