<?xml version="1.0" standalone="no"?><!DOCTYPE svg PUBLIC "-//W3C//DTD SVG 1.1//EN" "http://www.w3.org/Graphics/SVG/1.1/DTD/svg11.dtd"><svg class="icon" width="200px" height="200.00px" viewBox="0 0 1024 1024" version="1.1" xmlns="http://www.w3.org/2000/svg"><path d="M894.7 704c-17.673 0-32-14.327-32-32V416c0-17.673 14.327-32 32-32s32 14.327 32 32v256c0 17.673-14.327 32-32 32zM511.971 780.194c-10.147 0-20.295-0.403-30.374-1.211l-96.148-6.277c-4.322-0.35-8.106-1.155-10.87-1.743-0.93-0.198-2.181-0.465-2.739-0.548-45.542-2.276-88.166-25.852-120.042-66.408C221.62 665.611 205 617.052 205 567.274v-200.14c0-3.559 0.088-7.16 0.262-10.704 0.866-17.652 15.873-31.262 33.53-30.393 17.652 0.866 31.259 15.878 30.393 33.53a154.865 154.865 0 0 0-0.185 7.566v200.14c0 34.985 12.07 70.407 33.116 97.184 20.296 25.823 46.246 40.755 73.07 42.044 5.121 0.246 9.512 1.181 12.718 1.863 0.928 0.197 2.175 0.463 2.731 0.547l95.862 6.259a317.43 317.43 0 0 0 51.179-0.019l0.269-0.021 94.434-6.896c1.231-0.105 2.852-0.333 4.564-0.574 3.206-0.45 6.839-0.96 10.985-1.165 26.802-1.326 52.726-16.274 72.997-42.092 21.02-26.769 33.074-62.172 33.074-97.13v-200.14c0-17.673 14.327-32 32-32s32 14.327 32 32v200.14c0 49.739-16.599 98.271-46.737 136.654-31.894 40.619-74.571 64.232-120.172 66.489-1.266 0.063-3.2 0.334-5.247 0.621-2.468 0.347-5.266 0.74-8.362 0.992l-0.271 0.021-94.489 6.901a379.519 379.519 0 0 1-30.75 1.243z m-139.866-9.766h0.008-0.008zM109.414 316.751c-12.896 0-25.047-7.851-29.911-20.619-6.291-16.516 1.999-35.004 18.514-41.294l402.774-153.413c16.516-6.292 35.003 1.998 41.294 18.514 6.291 16.516-1.998 35.004-18.514 41.294L120.797 314.646a31.913 31.913 0 0 1-11.383 2.105z"  /><path d="M511.203 471.404c-3.786 0-7.635-0.677-11.384-2.104L97.044 315.887c-16.516-6.291-24.805-24.779-18.514-41.294 6.291-16.515 24.78-24.805 41.294-18.514L522.6 409.491c16.516 6.291 24.805 24.779 18.514 41.294-4.863 12.768-17.016 20.619-29.911 20.619zM915.227 318.011c-3.787 0-7.636-0.677-11.385-2.104L504.691 163.873c-16.516-6.291-24.805-24.779-18.514-41.294 6.291-16.517 24.779-24.803 41.295-18.514l399.151 152.033c16.516 6.291 24.805 24.779 18.514 41.294-4.864 12.767-17.016 20.619-29.91 20.619z"  /><path d="M517.051 471.273c-12.896 0-25.047-7.851-29.91-20.619-6.291-16.516 1.999-35.004 18.514-41.294l399.151-152.033c16.514-6.289 35.004 1.998 41.295 18.514 6.291 16.516-1.998 35.004-18.514 41.294L528.436 469.168a31.923 31.923 0 0 1-11.385 2.105zM952.3 818.5c0 31.204-25.296 56.5-56.5 56.5s-56.5-25.296-56.5-56.5 43.7-95.1 56.5-95.1c10.2 0 56.5 63.896 56.5 95.1z"  /></svg>