<?xml version="1.0" encoding="UTF-8" standalone="no"?>
<!DOCTYPE svg PUBLIC "-//W3C//DTD SVG 1.1//EN" "http://www.w3.org/Graphics/SVG/1.1/DTD/svg11.dtd">
<svg width="100%" height="100%" viewBox="0 0 200 200" version="1.1" xmlns="http://www.w3.org/2000/svg" xmlns:xlink="http://www.w3.org/1999/xlink" xml:space="preserve" xmlns:serif="http://www.serif.com/" style="fill-rule:evenodd;clip-rule:evenodd;stroke-linejoin:round;stroke-miterlimit:2;">
    <path d="M162.092,173.856L44.444,173.856C30.752,173.856 19.608,162.712 19.608,149.02L19.608,83.66C19.608,69.967 30.752,58.824 44.444,58.824L162.092,58.824C175.784,58.824 186.928,69.967 186.928,83.66L186.928,149.02C186.928,162.712 175.784,173.856 162.092,173.856ZM44.444,69.281C36.52,69.281 30.065,75.735 30.065,83.66L30.065,149.02C30.065,156.944 36.52,163.399 44.444,163.399L162.092,163.399C170.016,163.399 176.471,156.944 176.471,149.02L176.471,83.66C176.471,75.735 170.016,69.281 162.092,69.281L44.444,69.281Z" style="fill-rule:nonzero;stroke:black;stroke-width:2px;"/>
    <path d="M72.612,135.297L39.428,168.48C36.895,171.013 32.729,171.013 30.196,168.48C27.663,165.948 27.663,161.781 30.196,159.248L63.38,126.065C65.912,123.532 70.079,123.532 72.612,126.065C75.161,128.597 75.161,132.764 72.612,135.297ZM134.006,135.297L167.19,168.48C169.722,171.013 173.889,171.013 176.422,168.48C178.954,165.948 178.954,161.781 176.422,159.248L143.254,126.065C140.722,123.532 136.555,123.532 134.022,126.065C131.473,128.597 131.473,132.764 134.006,135.297ZM103.268,138.039C96.912,138.039 90.556,135.621 85.703,130.784L27.696,72.761L35.082,65.359L93.105,123.382C98.709,128.987 107.827,128.987 113.448,123.382L171.454,65.359L178.856,72.761L120.833,130.784C115.98,135.621 109.624,138.039 103.268,138.039Z" style="fill-rule:nonzero;stroke:black;stroke-width:2px;"/>
</svg>
